<svg width="16" height="16" viewBox="0 0 16 16" fill="none" xmlns="http://www.w3.org/2000/svg">
<path d="M9.61465 5.99463H9.98083L11.024 4.95069L11.0754 4.50775C9.13429 2.79336 6.17113 2.97809 4.45792 4.92049C3.98159 5.46008 3.63603 6.10184 3.44791 6.79646C3.5641 6.74864 3.69287 6.74109 3.81409 6.77431L5.90002 6.43002C5.90002 6.43002 6.00615 6.25436 6.06098 6.26543C6.98901 5.24565 8.55081 5.12686 9.62219 5.99463H9.61465Z" fill="#EA4335"/>
<path d="M12.5098 6.79642C12.2699 5.91305 11.7779 5.11877 11.0934 4.51123L9.62964 5.97596C10.2478 6.48132 10.5999 7.24288 10.5848 8.04169V8.30192C11.3046 8.30192 11.8876 8.8858 11.8876 9.60558C11.8876 10.3259 11.3041 10.9092 10.5848 10.9092H7.9788L7.71875 11.173V12.7369L7.9788 12.9971H10.5848C12.0787 13.0087 13.4041 12.0398 13.8478 10.6123C14.2904 9.18428 13.7472 7.63398 12.5098 6.79642Z" fill="#4285F4"/>
<path d="M5.3691 12.9825H7.97513V10.8951H5.3691C5.18349 10.8951 4.9999 10.8553 4.83089 10.7778L4.46471 10.8911L3.41445 11.935L3.32291 12.3015C3.91192 12.7464 4.6307 12.9855 5.3691 12.9825Z" fill="#34A853"/>
<path d="M5.36883 6.21047C3.92121 6.21902 2.63907 7.14669 2.17732 8.51931C1.71557 9.89193 2.17581 11.407 3.32314 12.2899L4.83465 10.7773C4.17874 10.4808 3.88751 9.70871 4.18377 9.05235C4.48004 8.39599 5.25164 8.10455 5.90754 8.40102C6.19626 8.53189 6.42764 8.76343 6.55842 9.05235L8.06993 7.5398C7.42659 6.69871 6.42714 6.20694 5.36883 6.21047Z" fill="#FBBC05"/>
</svg>
